<svg xmlns="http://www.w3.org/2000/svg" viewBox="0 0 24 24" width="24" height="24">
  <path fill="#F9A825" d="M22 14.355c0-.742-.601-1.346-1.34-1.346H10.676c-.672 0-1.258-.466-1.414-1.119a1.442 1.442 0 0 1 1.077-1.745c.08-.02.164-.03.248-.03h8.352c.594 0 1.076-.482 1.076-1.076 0-.594-.482-1.076-1.076-1.076H10.589c-1.9 0-3.666 1.082-4.508 2.791a5.617 5.617 0 0 0-.256 4.629c.65 1.848 2.378 3.09 4.342 3.09h10.493c.739 0 1.34-.604 1.34-1.346v-3.112z"/>
  <path fill="#E65100" d="M12.13 4.269c-.456-.456-1.196-.456-1.652 0L3.109 11.64c-1.479 1.479-1.479 3.884 0 5.364l4.28 4.28c.456.456 1.197.456 1.652 0l7.369-7.371c.456-.456.456-1.197 0-1.652L12.13 4.269z"/>
</svg>
